<?xml version="1.0" encoding="iso-8859-1"?>
<!-- Generator: Adobe Illustrator 22.1.0, SVG Export Plug-In . SVG Version: 6.00 Build 0)  -->
<svg xmlns="http://www.w3.org/2000/svg" xmlns:xlink="http://www.w3.org/1999/xlink" version="1.1" id="Layer_1_1_" x="0px" y="0px" viewBox="0 0 64 64" style="enable-background:new 0 0 64 64;" xml:space="preserve" width="512" height="512">
<g>
	<g>
		<g>
			<path style="fill:#F0BC5E;" d="M62,55H34V42c0-1.105,0.895-2,2-2h24c1.105,0,2,0.895,2,2V55z"/>
		</g>
	</g>
	<g>
		<path style="fill:#F0BC5E;" d="M22,1C13.729,1,7,7.729,7,16v8h1c0-2.209,1.791-4,4-4v-1c0-0.552,0.448-1,1-1h18    c0.552,0,1,0.448,1,1v1c2.209,0,4,1.791,4,4h1v-8C37,7.729,30.271,1,22,1z"/>
	</g>
	<g>
		<circle cx="17" cy="22" r="1"/>
		<circle cx="27" cy="22" r="1"/>
		<path d="M26,28h-2c0,1.103-0.897,2-2,2s-2-0.897-2-2h-2c0,2.206,1.794,4,4,4S26,30.206,26,28z"/>
		<path d="M60,39H36c-0.562,0-1.082,0.165-1.533,0.435L28,37.279v-2.072c2.21-1.445,3.864-3.663,4.589-6.267    C35.066,28.645,37,26.555,37,24c0-2.414-1.721-4.434-4-4.899V19c0-1.103-0.897-2-2-2H13c-1.103,0-2,0.897-2,2v0.101    C8.721,19.566,7,21.586,7,24c0,2.555,1.934,4.645,4.411,4.94c0.724,2.605,2.379,4.822,4.589,6.267v2.072L5.786,40.684    C2.924,41.638,1,44.307,1,47.325V57h32.184c0.414,1.161,1.514,2,2.816,2h6v2h-2v2h16v-2h-2v-2h6c1.654,0,3-1.346,3-3V42    C63,40.346,61.654,39,60,39z M35,24c0,1.317-0.859,2.427-2.042,2.829C32.979,26.554,33,26.28,33,26v-4.816    C34.161,21.598,35,22.698,35,24z M33,55H23v-9.586l4.182,4.182l5.421-8.674l0.549,0.183C33.062,41.389,33,41.686,33,42v6V55z     M30.652,40.271l-3.833,6.133L23.414,43l3.856-3.856L30.652,40.271z M9,24c0-1.302,0.839-2.402,2-2.816V26    c0,0.28,0.021,0.554,0.042,0.829C9.859,26.427,9,25.317,9,24z M13,26v-7h18v7c0,4.962-4.037,9-9,9S13,30.962,13,26z M22,37    c1.412,0,2.758-0.277,4-0.764v1.35l-4,4l-4-4v-1.35C19.242,36.723,20.588,37,22,37z M16.73,39.144L20.586,43l-3.404,3.404    l-3.833-6.133L16.73,39.144z M6.419,42.581l4.978-1.659l5.421,8.675L21,45.414V55H11v-7H9v3H3v-3.675    C3,45.169,4.374,43.263,6.419,42.581z M3,53h6v2H3V53z M52,61h-8v-2h8V61z M61,56c0,0.551-0.448,1-1,1H36c-0.552,0-1-0.449-1-1v-8    v-6c0-0.551,0.448-1,1-1h24c0.552,0,1,0.449,1,1V56z"/>
		<polygon points="51.4,44.8 54.333,47 51.4,49.2 52.6,50.8 57.667,47 52.6,43.2   "/>
		<polygon points="43.4,43.2 38.333,47 43.4,50.8 44.6,49.2 41.667,47 44.6,44.8   "/>
		<rect x="43.538" y="46" transform="matrix(0.3881 -0.9216 0.9216 0.3881 -13.9442 72.9984)" width="8.925" height="2.001"/>
	</g>
</g>
</svg>
