<?xml version="1.0" encoding="iso-8859-1"?>
<!-- Generator: Adobe Illustrator 19.0.0, SVG Export Plug-In . SVG Version: 6.00 Build 0)  -->
<svg version="1.1" id="Layer_1" xmlns="http://www.w3.org/2000/svg" xmlns:xlink="http://www.w3.org/1999/xlink" x="0px" y="0px"
	 viewBox="0 0 512 512" style="enable-background:new 0 0 512 512;" xml:space="preserve">
<circle style="fill:#263A7A;" cx="256" cy="256" r="256"/>
<path style="fill:#121149;" d="M382.995,146.532l128.312,128.312C501.66,407.43,391.046,512,256,512
	c-12.166,0-24.124-0.869-35.838-2.51l-72.332-73.08l52.431-110.306l-90.548-90.986l18.718-72.783l38.5-48.843l65.508-24.709
	l63.785-0.574L382.995,146.532z"/>
<g>
	<path style="fill:#71E2EF;" d="M256,279.273c-28.517,0-51.717-23.2-51.717-51.717s23.2-51.717,51.717-51.717
		c28.517,0,51.717,23.2,51.717,51.717c0,4.761-3.858,8.62-8.62,8.62s-8.62-3.858-8.62-8.62c0-19.011-15.467-34.478-34.478-34.478
		s-34.478,15.467-34.478,34.478s15.467,34.478,34.478,34.478c4.761,0,8.62,3.858,8.62,8.62S260.761,279.273,256,279.273z"/>
	<path style="fill:#71E2EF;" d="M256,321.508c-51.807,0-93.953-42.146-93.953-93.953c0-4.761,3.858-8.62,8.62-8.62
		s8.62,3.858,8.62,8.62c0,42.299,34.414,76.714,76.714,76.714s76.714-34.414,76.714-76.714S298.299,150.842,256,150.842
		c-4.761,0-8.62-3.858-8.62-8.62s3.858-8.62,8.62-8.62c51.807,0,93.953,42.146,93.953,93.953S307.807,321.508,256,321.508z"/>
	<path style="fill:#71E2EF;" d="M256,378.397c-4.761,0-8.62-3.858-8.62-8.62s3.858-8.62,8.62-8.62
		c73.668,0,133.603-59.935,133.603-133.603S329.668,93.953,256,93.953s-133.603,59.935-133.603,133.603
		c0,4.761-3.858,8.62-8.62,8.62c-4.761,0-8.62-3.858-8.62-8.62c0-83.175,67.667-150.842,150.842-150.842
		s150.842,67.667,150.842,150.842S339.175,378.397,256,378.397z"/>
</g>
<path style="fill:#38C6D9;" d="M256,175.838c-0.193,0-0.383,0.012-0.574,0.014v17.253c0.193-0.003,0.381-0.029,0.574-0.029
	c19.011,0,34.478,15.467,34.478,34.478c0,4.761,3.858,8.62,8.62,8.62s8.62-3.858,8.62-8.62
	C307.717,199.039,284.517,175.838,256,175.838z"/>
<path style="fill:#71E2EF;" d="M247.38,142.222c0,4.565,3.558,8.261,8.045,8.561V133.66
	C250.939,133.961,247.38,137.657,247.38,142.222z"/>
<path style="fill:#38C6D9;" d="M256,133.603c-0.197,0-0.381,0.045-0.574,0.059v17.124c0.193,0.014,0.378,0.059,0.574,0.059
	c42.299,0,76.714,34.414,76.714,76.714S298.299,304.271,256,304.271c-0.193,0-0.381-0.014-0.574-0.014v17.239
	c0.193,0.002,0.381,0.014,0.574,0.014c51.807,0,93.953-42.146,93.953-93.953S307.807,133.603,256,133.603z"/>
<path style="fill:#71E2EF;" d="M247.38,369.778c0,4.565,3.558,8.261,8.045,8.561v-17.124
	C250.939,361.517,247.38,365.213,247.38,369.778z"/>
<path style="fill:#38C6D9;" d="M256,76.714c-0.191,0-0.383,0.007-0.574,0.007v17.246c0.193,0,0.381-0.014,0.574-0.014
	c73.668,0,133.603,59.935,133.603,133.603S329.668,361.158,256,361.158c-0.197,0-0.381,0.045-0.574,0.059v17.124
	c0.193,0.014,0.378,0.059,0.574,0.059c83.175,0,150.842-67.667,150.842-150.842S339.175,76.714,256,76.714z"/>
<path style="fill:#FFEDB5;" d="M362.748,322.182c-6.765-7.016-17.936-7.094-24.797-0.233l-34.675,34.438
	c-11.51,11.431-31.098,3.279-31.098-12.943V238.563c0-9.704-7.954-17.548-17.698-17.37c-9.564,0.176-17.048,8.38-17.048,17.946
	v42.582c-1.303-8.306-8.47-14.667-17.141-14.667c-9.595,0-17.374,7.778-17.374,17.374v9.107c-1.303-8.306-8.47-14.667-17.141-14.667
	l0,0c-9.595,0-17.374,7.778-17.374,17.374v23.942c-1.303-8.306-8.47-14.667-17.141-14.667c-9.595,0-17.374,7.778-17.374,17.374
	v79.791c0,26.419,21.416,47.833,47.833,47.833h54.824c11.759,0,23.105-4.332,31.875-12.167l21.375-19.103l72.318-72.318
	C368.876,340.163,369.388,329.069,362.748,322.182z"/>
<path style="fill:#FEE187;" d="M362.748,322.182c-6.765-7.016-17.936-7.094-24.797-0.233l-34.675,34.438
	c-11.51,11.431-31.098,3.279-31.098-12.943V238.563c0-9.704-7.954-17.548-17.698-17.37c-9.564,0.176-17.048,8.38-17.048,17.946
	v42.582c-1.303-8.306-8.47-14.667-17.141-14.667c-0.555,0-1.102,0.033-1.643,0.083v183.377h17.898
	c11.759,0,23.105-4.332,31.875-12.167l21.375-19.103l72.318-72.318C368.876,340.163,369.388,329.069,362.748,322.182z"/>
<g>
	<path style="fill:#FFC61B;" d="M220.291,267.055c-0.645,0-1.277,0.041-1.903,0.109c8.699,0.948,15.469,8.313,15.469,17.263v56.984
		h3.808v-56.984C237.665,274.832,229.886,267.055,220.291,267.055z"/>
	<path style="fill:#FFC61B;" d="M203.15,341.411v-45.17c0-9.595-7.778-17.374-17.374-17.374l0,0c-0.684,0-1.355,0.05-2.019,0.128
		c8.642,1.002,15.353,8.335,15.353,17.246v45.17H203.15z"/>
	<path style="fill:#FFC61B;" d="M151.262,305.516c-0.655,0-1.298,0.043-1.934,0.114c8.683,0.964,15.439,8.32,15.439,17.26v31.316
		h3.868v-31.316C168.636,313.294,160.858,305.516,151.262,305.516z"/>
</g>
<g>
</g>
<g>
</g>
<g>
</g>
<g>
</g>
<g>
</g>
<g>
</g>
<g>
</g>
<g>
</g>
<g>
</g>
<g>
</g>
<g>
</g>
<g>
</g>
<g>
</g>
<g>
</g>
<g>
</g>
</svg>
