<?xml version="1.0" encoding="iso-8859-1"?>
<!-- Generator: Adobe Illustrator 19.0.0, SVG Export Plug-In . SVG Version: 6.00 Build 0)  -->
<svg version="1.1" id="Capa_1" xmlns="http://www.w3.org/2000/svg" xmlns:xlink="http://www.w3.org/1999/xlink" x="0px" y="0px"
	 viewBox="0 0 512 512" style="enable-background:new 0 0 512 512;" xml:space="preserve">
<path style="fill:#368DCF;" d="M437,362h-60c-41.4,0-75,33.6-75,75v60c0,8.401,6.599,15,15,15h180c8.401,0,15-6.599,15-15v-60
	C512,395.6,478.4,362,437,362z"/>
<path style="fill:#2B75AD;" d="M512,437v60c0,8.401-6.599,15-15,15h-90V362h30C478.4,362,512,395.6,512,437z"/>
<path style="fill:#CF0404;" d="M135,362H75c-41.4,0-75,33.6-75,75v60c0,8.401,6.599,15,15,15h180c8.401,0,15-6.599,15-15v-60
	C210,395.6,176.4,362,135,362z"/>
<path style="fill:#B80000;" d="M210,437v60c0,8.401-6.599,15-15,15h-90V362h30C176.4,362,210,395.6,210,437z"/>
<path style="fill:#FF3F2E;" d="M105,272c-32.999,0-60,27.001-60,60s27.001,60,60,60s60-27.001,60-60S137.999,272,105,272z"/>
<path style="fill:#4AB8F7;" d="M407,272c-32.999,0-60,27.001-60,60s27.001,60,60,60s60-27.001,60-60S439.999,272,407,272z"/>
<path style="fill:#1EA1E3;" d="M467,332c0,32.999-27.001,60-60,60V272C439.999,272,467,299.001,467,332z"/>
<path style="fill:#CF0404;" d="M165,332c0,32.999-27.001,60-60,60V272C137.999,272,165,299.001,165,332z"/>
<path style="fill:#355382;" d="M406,36.301C396.7,32.1,386.499,30,376,30h-98.101c-7.5,0-13.799,5.7-14.7,13.2l-22.2,180
	c-0.901,9,6,16.8,15,16.8h53.699l55.801,55.499C374.801,305.099,391,298.5,391,285v-46.5c5.099-0.901,10.201-2.701,15-4.801
	c26.4-11.4,45-37.798,45-68.699v-60C451,74.099,432.4,47.701,406,36.301z"/>
<path style="fill:#FFDA45;" d="M256,0H136c-10.499,0-20.7,2.1-30,6.301C79.6,17.701,61,44.099,61,75v90
	c0,30.901,18.6,57.299,45,68.699c4.799,2.1,9.901,3.9,15,4.801V285c0,13.5,16.199,20.099,25.499,10.499L196,246.301l6.301-6.301H256
	c41.4,0,75-33.6,75-75V75C331,33.6,297.4,0,256,0z"/>
<path style="fill:#3F6199;" d="M251.499,85.499L196,141c-8.01,8.006-16.594,13.874-25.499,4.499l-30-30c-6-5.7-6-15.298,0-20.999
	c5.7-6,15.298-6,20.999,0l19.5,19.199l15-15L230.501,64.5c5.7-6,15.298-6,20.999,0C257.5,70.201,257.5,79.799,251.499,85.499z"/>
<g>
</g>
<g>
</g>
<g>
</g>
<g>
</g>
<g>
</g>
<g>
</g>
<g>
</g>
<g>
</g>
<g>
</g>
<g>
</g>
<g>
</g>
<g>
</g>
<g>
</g>
<g>
</g>
<g>
</g>
</svg>
